<?xml version="1.0" encoding="UTF-8"?>
<svg id="LOGO" xmlns="http://www.w3.org/2000/svg" version="1.1" viewBox="0 0 1898.4 577.6">
  <defs>
    <style>
      .cls-1 {
        fill: #5e5e5d;
      }

      .cls-1, .cls-2 {
        stroke-width: 0px;
      }

      .cls-2 {
        fill: #dd042d;
      }
    </style>
  </defs>
  <path id="SCHRIFT" class="cls-1" d="M639.4,211.5c10.7-2.7,24.8-5.5,42.5-8.5,17.7-3,38-4.5,61-4.5s37.8,2.9,51.5,8.8c13.7,5.8,24.6,14,32.8,24.5,8.2,10.5,13.9,23.1,17.2,37.8,3.3,14.7,5,30.8,5,48.5v146h-46.5v-136c0-16-1.1-29.7-3.2-41s-5.8-20.5-10.8-27.5c-5-7-11.7-12.1-20-15.2-8.3-3.2-18.7-4.8-31-4.8s-10.2.2-15.5.5c-5.3.3-10.4.8-15.2,1.2-4.8.5-9.2,1.1-13,1.8s-6.6,1.2-8.2,1.5v219.5h-46.5v-252.5h0ZM1118.4,456.5c-10.7,2.7-24.8,5.5-42.2,8.5-17.5,3-37.8,4.5-60.7,4.5s-36.8-2.9-50.5-8.8c-13.7-5.8-24.7-14.1-33-24.8-8.3-10.7-14.3-23.2-18-37.7-3.7-14.5-5.5-30.6-5.5-48.3v-146h46.5v136c0,31.7,5,54.3,15,68s26.8,20.5,50.5,20.5,10.2-.2,15.5-.5,10.3-.8,15-1.2c4.7-.5,8.9-1,12.8-1.5s6.6-1.1,8.3-1.8v-219.5h46.5v252.5h0ZM1229.9,215.5c5.7-3.7,14.2-7.5,25.7-11.5s24.8-6,39.8-6,35.2,3.3,49.8,10c14.5,6.7,26.7,16,36.7,28,10,12,17.6,26.3,22.8,43,5.2,16.7,7.8,35,7.8,55s-3.1,39.9-9.3,56.8-14.9,31.1-26.2,42.7c-11.3,11.7-25,20.7-41,27s-34,9.5-54,9.5-40.8-1.5-57.5-4.5c-16.7-3-30.3-6-41-9V84l46.5-8v139.5h0ZM1229.9,423.5c4.7,1.3,11.2,2.6,19.7,3.8,8.5,1.2,19.1,1.8,31.8,1.8,25,0,45-8.2,60-24.8,15-16.5,22.5-39.9,22.5-70.2s-1.3-25.8-4-37.5c-2.7-11.7-7-21.8-13-30.2-6-8.5-13.8-15.2-23.2-20-9.5-4.8-20.9-7.2-34.3-7.2s-24.3,2.2-35,6.5-18.8,8.8-24.5,13.5v164.5h0ZM1669.9,456.5c-10.7,2.7-24.8,5.5-42.2,8.5-17.5,3-37.8,4.5-60.7,4.5s-36.8-2.9-50.5-8.8c-13.7-5.8-24.7-14.1-33-24.8-8.3-10.7-14.3-23.2-18-37.7-3.7-14.5-5.5-30.6-5.5-48.3v-146h46.5v136c0,31.7,5,54.3,15,68s26.8,20.5,50.5,20.5,10.2-.2,15.5-.5,10.3-.8,15-1.2c4.7-.5,8.9-1,12.8-1.5s6.6-1.1,8.3-1.8v-219.5h46.5v252.5h0ZM1795.4,430.5c19,0,33.1-2.5,42.2-7.5,9.2-5,13.8-13,13.8-24s-4.5-20.3-13.5-27c-9-6.7-23.9-14.2-44.5-22.5-10-4-19.6-8.1-28.8-12.3-9.2-4.2-17.1-9.1-23.8-14.8-6.7-5.7-12-12.5-16-20.5-4-8-6-17.8-6-29.5,0-23,8.5-41.2,25.5-54.8,17-13.5,40.2-20.2,69.5-20.2s14.7.4,22,1.2c7.3.8,14.2,1.8,20.5,3,6.3,1.2,11.9,2.4,16.7,3.8,4.8,1.3,8.6,2.5,11.2,3.5l-8.5,40c-5-2.7-12.8-5.4-23.5-8.2-10.7-2.8-23.5-4.3-38.5-4.3s-24.3,2.6-34,7.8-14.5,13.2-14.5,24.2,1.1,10.7,3.2,15c2.2,4.3,5.5,8.3,10,11.8s10.1,6.8,16.8,9.8c6.7,3,14.6,6.2,24,9.5,12.3,4.7,23.3,9.2,33,13.8,9.7,4.5,17.9,9.8,24.8,15.7,6.8,6,12.1,13.2,15.8,21.8,3.6,8.5,5.5,18.9,5.5,31.2,0,24-8.9,42.2-26.7,54.5-17.9,12.3-43.3,18.5-76.2,18.5s-41-1.9-54-5.7c-13-3.8-21.8-6.8-26.5-8.8l8.5-40c5.3,2,13.8,5,25.5,9,11.7,4,27.2,6,46.5,6h0Z"/>
  <path id="BILDMARKE" class="cls-2" d="M291.8,51.6l156.7,79.6c4.9,2.5,5.9,6.6,5.9,9.6,0,3-1,7.1-5.8,9.7l-151.9,80.4c-1.6.8-3.3,1.3-5.1,1.3s-3.5-.4-5.1-1.3l-151-80.4c-4.8-2.6-5.8-6.7-5.8-9.7s1.1-7.1,5.9-9.6l156-79.6h0ZM291.8,0L114.9,90.2c-40.9,20.9-41.5,79.2-.9,100.8l151,80.4c8.3,4.5,17.5,6.7,26.7,6.7s18.3-2.2,26.6-6.6l151.9-80.4c40.7-21.6,40.2-80.1-.9-100.9L291.8,0h0ZM578.3,260.9c-.2-32.9-27.2-56.6-56.9-56.6s-17.8,2.1-26.4,6.6l-157.5,82.7c-18.7,9.8-30.4,29.2-30.4,50.3v176.1c0,33.1,27.2,56.9,56.9,56.9s18.3-2.2,27.2-7l188.1-102.7-1-206.3h0ZM368.6,528.5c-1.5.8-3,1.3-4.5,1.3-3,0-9.7-2.4-9.7-9.7v-176.1c0-3.6,2-6.9,5.2-8.5l157.5-82.7c1.5-.8,3-1.2,4.4-1.2,3.9,0,9.7,3.1,9.7,9.7l.9,178.2-163.4,89.2h0ZM246.5,569.9c16.6-9.8,26.5-27.2,26.5-46.5v-174c0-26.4-14.5-50.4-37.8-62.6l-130.5-68.6-26.3-14.1-.3-.2c-16.7-8.6-36.2-7.9-52.2,1.9C9.9,215.5.3,232.5.3,251.3v41c0,13,10.6,23.6,23.6,23.6s23.6-10.6,23.6-23.6v-41c0-2.8,1.6-4.4,2.9-5.2,1.3-.8,3.4-1.5,5.9-.3l26.2,14,130.8,68.7c7.8,4.1,12.6,12.1,12.6,20.8v174c0,3.4-2.1,5.2-3.4,6-1.3.8-3.9,1.8-6.9.1l-168.2-91.8.2-34.5c0-13-10.4-23.7-23.4-23.8h-.2c-13,0-23.5,10.5-23.6,23.4l-.5,62.7,193,105.3c8.2,4.5,17.1,6.7,26,6.7s19-2.6,27.6-7.7h0Z"/>
</svg>